<svg width="935" height="201" viewBox="0 0 935 201" fill="none" xmlns="http://www.w3.org/2000/svg">
<g clip-path="url(#clip0_60_2)">
<path d="M286 47.25L283.438 47.1875C282.521 47.1042 281.354 47.0625 279.938 47.0625H265.938V104H234.062V15.5625H283.688L289.875 15.375H291C294.125 15.375 295.688 16.2917 295.688 18.125C295.688 18.8333 295.396 19.5 294.812 20.125C294.271 20.7083 293.667 21 293 21C291.917 21 290.875 20.8958 289.875 20.6875C287.958 20.2708 285.458 20.0625 282.375 20.0625H265.938V42.5625H278.5C278.5 42.5625 281.083 42.4583 286.25 42.25C288.5 42.25 289.625 43.0833 289.625 44.75C289.625 46.4167 288.417 47.25 286 47.25ZM354.963 73.6875L360.088 74.0625C367.421 74.0625 373.65 71.5 378.775 66.375C383.9 61.25 386.463 54.875 386.463 47.25C386.463 37.25 382.067 29.8333 373.275 25C368.442 22.3333 363.275 20.7917 357.775 20.375C355.442 20.1667 353.275 20.0625 351.275 20.0625H347.025C346.15 20.0625 345.379 20.0833 344.713 20.125V104H312.838V15.5625C322.588 15.5625 330.483 15.5625 336.525 15.5625C342.567 15.5625 346.504 15.5833 348.338 15.625C350.171 15.6667 351.796 15.7292 353.213 15.8125C354.671 15.8542 356.025 15.9167 357.275 16C359.108 16.1667 361.692 16.5625 365.025 17.1875C368.4 17.8125 371.733 19 375.025 20.75C378.317 22.5 381.15 24.6667 383.525 27.25C388.65 32.75 391.213 39.2917 391.213 46.875C391.213 54.375 388.838 61 384.088 66.75C379.213 72.625 372.713 76.4167 364.588 78.125C368.463 90.125 373.4 97.2917 379.4 99.625C381.233 100.333 383.067 100.688 384.9 100.688L389.838 99.5C391.379 99.5 392.15 100.292 392.15 101.875C392.15 104.083 389.567 105.188 384.4 105.188C380.65 105.188 377.213 104.146 374.088 102.062C369.213 99.1458 365.067 93.4792 361.65 85.0625L359.838 80.625C359.546 79.9167 359.275 79.4792 359.025 79.3125C358.817 79.1458 358.421 79.0625 357.838 79.0625C357.296 79.0625 356.817 79.1042 356.4 79.1875L354.9 79.25C353.233 79.25 352.088 78.9375 351.463 78.3125C350.879 77.6875 350.588 77.0417 350.588 76.375C350.588 74.5833 352.046 73.6875 354.963 73.6875ZM428.738 92.875C421.113 92.875 415.904 92.8125 413.113 92.6875L411.3 97C410.758 98.2083 410.258 99.4792 409.8 100.812C408.842 103.396 407.508 104.688 405.8 104.688C405.008 104.688 404.363 104.438 403.863 103.938C403.363 103.438 403.113 102.917 403.113 102.375C403.113 101.458 403.508 100.438 404.3 99.3125C405.55 97.5625 406.779 95.2708 407.988 92.4375C404.404 92.1042 402.613 91.0625 402.613 89.3125C402.613 87.5625 403.633 86.6875 405.675 86.6875C406.925 86.6875 408.383 86.8958 410.05 87.3125L441.238 11.5625L483.988 104H451.425L446.238 92.875H428.738ZM415.113 87.8125C419.113 88.1458 422.696 88.3125 425.863 88.3125H444.175L428.55 54.625L415.113 87.8125ZM496.388 104.938C495.596 104.854 494.992 104.5 494.575 103.875C494.158 103.25 493.992 102.562 494.075 101.812C494.283 100.521 494.679 99.3333 495.263 98.25C495.846 97.1667 496.263 96.3542 496.513 95.8125C496.804 95.2708 497.096 94.6667 497.388 94L499.763 88.5L525.45 11.5625L553.075 64.9375L579.888 11.5625L611.95 104H578.388L562.888 56.25L538.888 106.25L513.638 61.25L504.888 88.5625C503.513 91.6042 502.533 94.1875 501.95 96.3125C501.367 98.4375 500.888 100.083 500.513 101.25C499.679 103.875 498.304 105.104 496.388 104.938ZM685.725 98.625C687.85 98.625 688.913 99.4583 688.913 101.125C688.913 101.875 688.454 102.542 687.538 103.125C686.621 103.708 685.038 104 682.788 104H629.85V15.5625C646.267 15.5625 662.683 15.5625 679.1 15.5625L684.225 15.375C687.35 15.375 688.913 16.2917 688.913 18.125C688.913 18.8333 688.642 19.5 688.1 20.125C687.6 20.7083 687.017 21 686.35 21C685.267 21 684.121 20.875 682.913 20.625C681.121 20.25 678.663 20.0625 675.538 20.0625H661.725V39.125H673.1C673.1 39.125 675.663 39.0208 680.788 38.8125C681.704 38.8125 682.475 39.0417 683.1 39.5C683.767 39.9167 684.1 40.5208 684.1 41.3125C684.1 43.0625 682.933 43.9375 680.6 43.9375L677.913 43.875C676.538 43.75 675.392 43.6875 674.475 43.6875H661.725V99.4375H675.538C678.621 99.4375 680.808 99.3125 682.1 99.0625C683.642 98.7708 684.85 98.625 685.725 98.625ZM824.9 18.1875L824.525 25.9375V63.3125C824.525 75.6458 820.983 85.6667 813.9 93.375C806.65 101.25 797.025 105.188 785.025 105.188C772.192 105.188 762.192 101.167 755.025 93.125C748.358 85.75 745.025 76.2917 745.025 64.75V15.5625H776.963V99.875C780.171 100.333 783.692 100.562 787.525 100.562C791.4 100.562 795.317 99.7917 799.275 98.25C803.275 96.7083 806.775 94.2917 809.775 91C816.275 83.9167 819.567 73.5625 819.65 59.9375V26.0625C819.65 24.8125 819.546 23.3333 819.338 21.625C819.171 19.9167 819.088 18.75 819.088 18.125C819.088 15.9583 820.108 14.875 822.15 14.875C823.983 14.875 824.9 15.9792 824.9 18.1875ZM892.862 78.0625L898.425 78.3125C906.508 78.3125 913.175 75.6458 918.425 70.3125C923.758 64.9375 926.55 57.9792 926.8 49.4375C927.258 36.2708 920.925 27.375 907.8 22.75C902.883 21 896.487 20.125 888.612 20.125H883.362V104H851.487V15.5625H875.425C888.342 15.5625 896.133 15.75 898.8 16.125C901.467 16.5 904.237 16.9792 907.112 17.5625C910.029 18.1458 913.154 19.4167 916.487 21.375C919.862 23.3333 922.717 25.6667 925.05 28.375C929.758 33.875 932.029 40.3333 931.862 47.75C931.612 57.2083 928.842 65.0833 923.55 71.375C918.175 77.7083 910.758 81.625 901.3 83.125C898.55 83.5 896.383 83.6875 894.8 83.6875C891.05 83.6875 889.175 82.6667 889.175 80.625C889.175 79.875 889.508 79.2708 890.175 78.8125C890.842 78.3125 891.737 78.0625 892.862 78.0625Z" fill="#0059A9"/>
<path d="M244.941 135.5C245.43 137.785 245.674 140.441 245.674 143.469C245.674 143.684 245.674 143.889 245.674 144.084L245.586 149.533L257.07 148.889C257.383 149.26 257.539 150.021 257.539 151.174C257.539 152.326 257.441 153.459 257.246 154.572C256.172 154.729 254.775 154.807 253.057 154.807C251.338 154.807 248.848 154.611 245.586 154.221L245.527 162.57C245.527 166.418 245.791 169.895 246.318 173C244.658 173.508 242.637 173.762 240.254 173.762C237.891 173.762 236.396 173.508 235.771 173C236.357 167.785 236.65 161.643 236.65 154.572V138.547C236.65 137.219 236.465 136.33 236.094 135.881C235.742 135.412 235.068 135.021 234.072 134.709C233.779 134.318 233.633 133.693 233.633 132.834C233.633 131.955 233.662 131.34 233.721 130.988C235.381 130.969 237.734 130.949 240.781 130.93C243.828 130.91 246.113 130.891 247.637 130.871C251.875 130.812 257.197 130.656 263.604 130.402C263.916 130.676 264.072 131.936 264.072 134.182C264.072 136.428 263.77 138.127 263.164 139.279C262.559 140.432 261.426 141.008 259.766 141.008C258.105 141.008 256.943 140.49 256.279 139.455V135.91C250.576 135.637 246.797 135.5 244.941 135.5ZM284.964 153.342C284.964 150.002 284.203 148.332 282.679 148.332C281.566 148.332 280.502 148.654 279.486 149.299C278.47 149.924 277.377 150.803 276.205 151.936C276.205 153.889 276.146 160.93 276.029 173.059C273.861 173.43 272.084 173.615 270.697 173.615C269.33 173.615 268.148 173.43 267.152 173.059C267.386 169.816 267.504 164.26 267.504 156.389V149.533C267.504 148.049 266.986 147.17 265.951 146.896C265.248 146.682 264.3 146.525 263.109 146.428C262.972 145.842 262.904 145.402 262.904 145.109C262.904 144.797 262.914 144.553 262.933 144.377C265.746 142.795 269.222 142.004 273.363 142.004C274.046 142.004 274.554 142.014 274.886 142.033C275.453 143.01 275.785 144.025 275.882 145.08C276 146.135 276.087 147.141 276.146 148.098C278.763 144.914 280.97 142.98 282.767 142.297C283.627 141.965 284.535 141.799 285.492 141.799C287.445 141.799 289.007 142.346 290.179 143.439C291.371 144.514 291.966 146.096 291.966 148.186C291.966 149.787 291.38 151.125 290.209 152.199C289.056 153.254 287.66 153.781 286.019 153.781C285.668 153.781 285.316 153.752 284.964 153.693V153.342ZM320.739 156.447L320.564 166.291C320.564 166.389 320.564 166.486 320.564 166.584C320.564 167.658 321.071 168.195 322.087 168.195C322.868 168.195 323.698 167.941 324.577 167.434C324.851 167.668 325.105 168 325.339 168.43C325.593 168.84 325.739 169.162 325.779 169.396C323.357 172.482 320.837 174.025 318.22 174.025C315.622 174.025 313.806 172.746 312.771 170.188C310.974 171.438 309.138 172.385 307.263 173.029C305.407 173.693 303.806 174.025 302.458 174.025C301.13 174.025 299.89 173.879 298.737 173.586C297.605 173.293 296.55 172.824 295.573 172.18C293.464 170.812 292.409 168.557 292.409 165.412C292.409 163.732 292.868 162.268 293.786 161.018C294.724 159.748 295.993 158.752 297.595 158.029C300.661 156.643 304.323 155.891 308.581 155.773L311.98 155.656C312.116 154.074 312.185 152.824 312.185 151.906C312.185 149.836 311.784 148.273 310.984 147.219C310.202 146.164 308.737 145.637 306.589 145.637C305.3 145.637 304.294 146.086 303.571 146.984C302.868 147.883 302.517 149.211 302.517 150.969C302.517 151.203 302.185 151.486 301.521 151.818C300.407 152.346 299.294 152.609 298.181 152.609C297.087 152.609 296.208 152.297 295.544 151.672C294.9 151.047 294.577 150.168 294.577 149.035C294.577 147.902 294.987 146.838 295.808 145.842C296.628 144.846 297.722 144.074 299.089 143.527C301.804 142.453 304.9 141.916 308.376 141.916C312.009 141.916 314.665 142.492 316.345 143.645C317.868 144.66 318.952 146.115 319.597 148.01C320.359 150.217 320.739 153.029 320.739 156.447ZM311.98 167.111C311.726 165.686 311.599 164.455 311.599 163.42C311.599 162.365 311.628 160.9 311.687 159.025L307.614 159.201C305.525 159.201 303.913 159.709 302.78 160.725C301.648 161.74 301.081 163.01 301.081 164.533C301.081 166.057 301.413 167.15 302.077 167.814C302.741 168.479 304.079 168.811 306.091 168.811C308.122 168.811 310.085 168.244 311.98 167.111ZM351.329 157.883L351.358 156.096C351.358 152.873 351.065 150.715 350.479 149.621C349.913 148.527 348.839 147.98 347.257 147.98C346.3 147.98 345.255 148.332 344.122 149.035C342.989 149.719 341.514 150.822 339.698 152.346C339.718 153.537 339.727 156.34 339.727 160.754C339.727 165.148 339.718 169.23 339.698 173C337.647 173.41 335.87 173.615 334.366 173.615C332.862 173.615 331.622 173.43 330.645 173.059C330.899 168.625 331.026 164.602 331.026 160.988C331.026 157.355 330.958 153.557 330.821 149.592C330.821 148.107 330.274 147.248 329.18 147.014C328.516 146.799 327.579 146.643 326.368 146.545C326.348 146.428 326.319 146.291 326.28 146.135C326.261 145.959 326.241 145.822 326.221 145.725C326.182 145.451 326.163 145.217 326.163 145.021C326.163 144.826 326.173 144.65 326.192 144.494C329.102 142.814 332.608 141.975 336.71 141.975C337.081 141.975 337.618 141.994 338.321 142.033C338.77 142.736 339.073 143.771 339.229 145.139C339.386 146.486 339.503 147.434 339.581 147.98C342.96 144.895 345.88 142.98 348.341 142.238C349.473 141.906 350.577 141.74 351.651 141.74C352.725 141.74 353.682 141.848 354.522 142.062C355.382 142.258 356.182 142.58 356.925 143.029C358.487 143.986 359.346 145.598 359.503 147.863C363.096 143.781 367.071 141.74 371.427 141.74C373.868 141.74 375.782 142.365 377.169 143.615C378.692 145.021 379.454 147.766 379.454 151.848C379.454 153.527 379.317 155.92 379.044 159.025C378.77 162.111 378.634 164.904 378.634 167.404C378.634 167.912 378.995 168.303 379.718 168.576C380.44 168.85 381.143 168.986 381.827 168.986C382.53 168.986 383.009 168.947 383.262 168.869C383.516 169.475 383.643 169.973 383.643 170.363C383.643 170.754 383.614 171.037 383.555 171.213C380.372 173.205 377.745 174.201 375.675 174.201C372.296 174.201 370.606 171.506 370.606 166.115L370.987 155.715C370.987 152.746 370.733 150.725 370.225 149.65C369.718 148.576 368.8 148.039 367.471 148.039C364.952 148.039 362.315 149.221 359.561 151.584C359.679 163.83 359.854 170.812 360.089 172.531C357.999 173.117 356.3 173.41 354.991 173.41C353.702 173.41 352.364 173.254 350.977 172.941C350.958 172.551 350.948 171.936 350.948 171.096L351.329 157.883ZM394.077 160.344C394.663 163.234 395.913 165.568 397.827 167.346C399.741 169.123 401.977 170.012 404.536 170.012C407.094 170.012 409.672 168.908 412.27 166.701C413.246 167.346 413.842 168.107 414.057 168.986C412.26 171.076 409.604 172.57 406.088 173.469C404.663 173.84 403.012 174.025 401.137 174.025C399.282 174.025 397.358 173.684 395.366 173C393.373 172.336 391.586 171.359 390.004 170.07C388.442 168.781 387.202 167.092 386.284 165.002C385.366 162.893 384.907 160.559 384.907 158C384.907 155.441 385.375 153.127 386.313 151.057C387.25 148.967 388.491 147.258 390.034 145.93C393.256 143.137 396.948 141.74 401.108 141.74C404.76 141.74 407.924 142.727 410.6 144.699C411.889 145.676 412.914 146.945 413.676 148.508C414.457 150.051 414.848 151.799 414.848 153.752C414.848 157.092 413.745 158.85 411.538 159.025L394.077 160.344ZM406.967 152.873C406.967 150.549 406.323 148.732 405.034 147.424C403.745 146.115 402.055 145.461 399.965 145.461C397.875 145.461 396.293 146.447 395.219 148.42C394.145 150.373 393.608 153.088 393.608 156.564C398.471 156.037 402.866 155.48 406.791 154.895C406.909 154.191 406.967 153.518 406.967 152.873ZM452.56 161.252C452.56 163.771 452.98 167.688 453.82 173C452.336 173.508 450.421 173.762 448.078 173.762C445.754 173.762 444.171 173.508 443.332 173L443.918 163.566L444.093 155.188C440.109 148 437.531 143.566 436.359 141.887C434.23 138.82 432.668 136.975 431.671 136.35C431.3 136.096 430.343 135.91 428.8 135.793C428.468 134.855 428.332 134.055 428.39 133.391C429.992 132.492 431.418 131.877 432.668 131.545C433.918 131.193 435.07 131.018 436.125 131.018C437.179 131.018 437.863 131.027 438.175 131.047C438.254 131.125 438.546 131.408 439.054 131.896C439.562 132.365 440.011 132.814 440.402 133.244C440.793 133.654 441.369 134.387 442.13 135.441C442.892 136.496 443.625 137.648 444.328 138.898C446.066 142.004 447.892 146.047 449.806 151.027C454.025 141.516 456.222 135.842 456.398 134.006C456.437 133.693 456.457 133.176 456.457 132.453C456.457 131.73 456.281 131.105 455.929 130.578C455.929 130.383 456.212 130.207 456.779 130.051C457.345 129.875 457.921 129.787 458.507 129.787C460.246 129.787 461.554 130.344 462.433 131.457C463.332 132.551 463.781 133.703 463.781 134.914C463.781 136.125 463.546 137.297 463.078 138.43C462.629 139.562 461.984 140.734 461.144 141.945C460.324 143.137 459.455 144.367 458.537 145.637C455.998 149.113 453.966 152.512 452.443 155.832L452.56 161.252ZM498.413 157.062C498.413 159.621 497.954 162.023 497.036 164.27C496.118 166.516 494.82 168.352 493.14 169.777C489.761 172.648 485.298 174.084 479.751 174.084C476.978 174.084 474.419 173.43 472.075 172.121C469.732 170.812 467.866 168.986 466.48 166.643C465.093 164.279 464.4 161.467 464.4 158.205C464.4 154.924 465.239 151.975 466.919 149.357C470.22 144.201 475.757 141.623 483.53 141.623C487.437 141.623 490.864 142.961 493.814 145.637C496.88 148.43 498.413 152.238 498.413 157.062ZM473.042 157.912C473.042 161.252 474.009 164.172 475.943 166.672C477.876 169.172 480.142 170.422 482.739 170.422C487.544 170.422 489.946 166.506 489.946 158.674C489.946 154.787 489.058 151.633 487.28 149.211C485.503 146.789 483.238 145.578 480.484 145.578C479.097 145.578 477.896 145.93 476.88 146.633C475.864 147.336 475.093 148.283 474.566 149.475C473.55 151.76 473.042 154.572 473.042 157.912ZM502.138 146.398C500.848 146.398 500.204 145.842 500.204 144.729C500.204 144.416 500.223 144.182 500.263 144.025C500.946 143.537 502.616 143.068 505.272 142.619C507.929 142.15 510.077 141.916 511.718 141.916C512.323 143.889 512.626 146.105 512.626 148.566C512.626 151.027 512.499 153.84 512.245 157.004C512.011 160.148 511.893 162.365 511.893 163.654C511.893 164.943 512.089 165.988 512.479 166.789C512.87 167.57 513.671 167.961 514.882 167.961C516.112 167.961 517.372 167.668 518.661 167.082C519.97 166.477 521.63 165.373 523.641 163.771C523.641 157.756 523.661 150.607 523.7 142.326C525.946 141.975 527.753 141.799 529.12 141.799C530.507 141.799 531.708 141.975 532.723 142.326C532.43 146.604 532.284 150.715 532.284 154.66C532.284 158.586 532.391 162.678 532.606 166.936C532.645 167.58 532.772 168.078 532.987 168.43C533.202 168.781 533.759 168.986 534.657 169.045C535.575 169.104 536.21 169.201 536.561 169.338C536.639 169.748 536.679 170.412 536.679 171.33C534.979 172.287 533.27 172.971 531.552 173.381C529.833 173.811 528.378 174.025 527.186 174.025C525.995 174.025 525.175 173.586 524.725 172.707C524.296 171.828 523.954 170.07 523.7 167.434C518.934 171.828 514.384 174.025 510.048 174.025C505.712 174.025 503.544 170.588 503.544 163.713L504.042 148.215C504.042 147.551 503.837 147.082 503.427 146.809C503.036 146.535 502.606 146.398 502.138 146.398ZM558.274 153.342C558.274 150.002 557.512 148.332 555.989 148.332C554.875 148.332 553.811 148.654 552.795 149.299C551.78 149.924 550.686 150.803 549.514 151.936C549.514 153.889 549.455 160.93 549.338 173.059C547.17 173.43 545.393 173.615 544.006 173.615C542.639 173.615 541.457 173.43 540.461 173.059C540.696 169.816 540.813 164.26 540.813 156.389V149.533C540.813 148.049 540.295 147.17 539.26 146.896C538.557 146.682 537.61 146.525 536.418 146.428C536.282 145.842 536.213 145.402 536.213 145.109C536.213 144.797 536.223 144.553 536.243 144.377C539.055 142.795 542.532 142.004 546.672 142.004C547.356 142.004 547.864 142.014 548.196 142.033C548.762 143.01 549.094 144.025 549.192 145.08C549.309 146.135 549.397 147.141 549.455 148.098C552.073 144.914 554.28 142.98 556.077 142.297C556.936 141.965 557.844 141.799 558.801 141.799C560.754 141.799 562.317 142.346 563.489 143.439C564.68 144.514 565.276 146.096 565.276 148.186C565.276 149.787 564.69 151.125 563.518 152.199C562.366 153.254 560.969 153.781 559.329 153.781C558.977 153.781 558.625 153.752 558.274 153.693V153.342ZM584.502 163.566V140.07C584.502 137.609 583.789 136.027 582.363 135.324C582.187 135.227 581.904 135.119 581.513 135.002C581.142 134.885 580.918 134.807 580.839 134.768C580.546 134.377 580.4 133.742 580.4 132.863C580.4 131.965 580.429 131.34 580.488 130.988C581.464 130.793 583.212 130.695 585.732 130.695C588.252 130.695 590.839 130.793 593.496 130.988V163.654C593.496 165.529 593.623 168.137 593.877 171.477L593.994 173C592.334 173.508 590.351 173.762 588.046 173.762C585.761 173.762 584.306 173.508 583.681 173C584.228 168.879 584.502 165.734 584.502 163.566ZM622.562 157.883L622.591 156.096C622.591 152.873 622.298 150.715 621.712 149.621C621.146 148.527 620.071 147.98 618.489 147.98C617.532 147.98 616.487 148.332 615.355 149.035C614.222 149.719 612.747 150.822 610.931 152.346C610.95 153.537 610.96 156.34 610.96 160.754C610.96 165.148 610.95 169.23 610.931 173C608.88 173.41 607.103 173.615 605.599 173.615C604.095 173.615 602.855 173.43 601.878 173.059C602.132 168.625 602.259 164.602 602.259 160.988C602.259 157.355 602.191 153.557 602.054 149.592C602.054 148.107 601.507 147.248 600.413 147.014C599.749 146.799 598.812 146.643 597.601 146.545C597.581 146.428 597.552 146.291 597.513 146.135C597.493 145.959 597.474 145.822 597.454 145.725C597.415 145.451 597.396 145.217 597.396 145.021C597.396 144.826 597.405 144.65 597.425 144.494C600.335 142.814 603.841 141.975 607.943 141.975C608.314 141.975 608.851 141.994 609.554 142.033C610.003 142.736 610.306 143.771 610.462 145.139C610.618 146.486 610.736 147.434 610.814 147.98C614.193 144.895 617.112 142.98 619.573 142.238C620.706 141.906 621.81 141.74 622.884 141.74C623.958 141.74 624.915 141.848 625.755 142.062C626.614 142.258 627.415 142.58 628.157 143.029C629.72 143.986 630.579 145.598 630.736 147.863C634.329 143.781 638.304 141.74 642.659 141.74C645.101 141.74 647.015 142.365 648.402 143.615C649.925 145.021 650.687 147.766 650.687 151.848C650.687 153.527 650.55 155.92 650.277 159.025C650.003 162.111 649.866 164.904 649.866 167.404C649.866 167.912 650.228 168.303 650.95 168.576C651.673 168.85 652.376 168.986 653.06 168.986C653.763 168.986 654.241 168.947 654.495 168.869C654.749 169.475 654.876 169.973 654.876 170.363C654.876 170.754 654.847 171.037 654.788 171.213C651.605 173.205 648.978 174.201 646.907 174.201C643.529 174.201 641.839 171.506 641.839 166.115L642.22 155.715C642.22 152.746 641.966 150.725 641.458 149.65C640.95 148.576 640.032 148.039 638.704 148.039C636.185 148.039 633.548 149.221 630.794 151.584C630.911 163.83 631.087 170.812 631.321 172.531C629.232 173.117 627.532 173.41 626.224 173.41C624.935 173.41 623.597 173.254 622.21 172.941C622.191 172.551 622.181 171.936 622.181 171.096L622.562 157.883ZM684.499 156.447L684.323 166.291C684.323 166.389 684.323 166.486 684.323 166.584C684.323 167.658 684.831 168.195 685.846 168.195C686.628 168.195 687.458 167.941 688.337 167.434C688.61 167.668 688.864 168 689.098 168.43C689.352 168.84 689.499 169.162 689.538 169.396C687.116 172.482 684.596 174.025 681.979 174.025C679.382 174.025 677.565 172.746 676.53 170.188C674.733 171.438 672.897 172.385 671.022 173.029C669.167 173.693 667.565 174.025 666.218 174.025C664.889 174.025 663.649 173.879 662.497 173.586C661.364 173.293 660.309 172.824 659.333 172.18C657.223 170.812 656.169 168.557 656.169 165.412C656.169 163.732 656.628 162.268 657.546 161.018C658.483 159.748 659.753 158.752 661.354 158.029C664.421 156.643 668.083 155.891 672.341 155.773L675.739 155.656C675.876 154.074 675.944 152.824 675.944 151.906C675.944 149.836 675.544 148.273 674.743 147.219C673.962 146.164 672.497 145.637 670.348 145.637C669.059 145.637 668.054 146.086 667.331 146.984C666.628 147.883 666.276 149.211 666.276 150.969C666.276 151.203 665.944 151.486 665.28 151.818C664.167 152.346 663.054 152.609 661.94 152.609C660.846 152.609 659.968 152.297 659.304 151.672C658.659 151.047 658.337 150.168 658.337 149.035C658.337 147.902 658.747 146.838 659.567 145.842C660.388 144.846 661.481 144.074 662.848 143.527C665.563 142.453 668.659 141.916 672.136 141.916C675.768 141.916 678.425 142.492 680.104 143.645C681.628 144.66 682.712 146.115 683.356 148.01C684.118 150.217 684.499 153.029 684.499 156.447ZM675.739 167.111C675.485 165.686 675.358 164.455 675.358 163.42C675.358 162.365 675.388 160.9 675.446 159.025L671.374 159.201C669.284 159.201 667.673 159.709 666.54 160.725C665.407 161.74 664.841 163.01 664.841 164.533C664.841 166.057 665.173 167.15 665.837 167.814C666.501 168.479 667.839 168.811 669.85 168.811C671.882 168.811 673.845 168.244 675.739 167.111ZM719.043 147.014C720.157 145.1 721.514 143.547 723.116 142.355C724.717 141.145 726.28 140.539 727.803 140.539C729.346 140.539 730.508 140.881 731.289 141.564C732.09 142.248 732.491 143.166 732.491 144.318C732.491 146.643 731.075 148.361 728.243 149.475C727.481 148.342 726.27 147.775 724.61 147.775C723.438 147.775 722.246 148.547 721.036 150.09C721.641 151.535 721.944 152.834 721.944 153.986C721.944 161.252 718.516 165.773 711.661 167.551C711.758 168.234 712.666 169.152 714.385 170.305C715.127 170.793 715.948 171.32 716.846 171.887C717.745 172.453 718.623 173.078 719.483 173.762C720.362 174.445 721.163 175.158 721.885 175.9C723.506 177.561 724.317 179.357 724.317 181.291C724.317 185.549 722.745 188.781 719.6 190.988C716.455 193.195 711.993 194.299 706.211 194.299C698.868 194.299 693.829 192.707 691.094 189.523C689.903 188.156 689.307 186.506 689.307 184.572C689.307 180.568 691.446 177.912 695.723 176.604C697.52 176.057 699.151 175.666 700.616 175.432C703.467 174.943 705.577 174.455 706.944 173.967C704.639 172.072 703.35 170.168 703.077 168.254C699.366 167.98 696.27 166.75 693.789 164.562C691.309 162.375 690.069 159.592 690.069 156.213C690.069 151.408 691.7 147.775 694.961 145.314C698.223 142.854 702.696 141.623 708.379 141.623C710.274 141.623 712.178 142.131 714.092 143.146C716.026 144.143 717.676 145.432 719.043 147.014ZM705.303 145.285C700.909 145.285 698.711 148.547 698.711 155.07C698.711 158.156 699.502 160.617 701.084 162.453C702.686 164.289 704.717 165.207 707.178 165.207C708.389 165.207 709.493 164.729 710.489 163.771C712.481 161.857 713.477 159.289 713.477 156.066C713.477 152.844 712.696 150.246 711.133 148.273C709.59 146.281 707.647 145.285 705.303 145.285ZM716.817 183.43C716.817 182.238 716.192 181.076 714.942 179.943C713.77 178.869 712.198 177.678 710.225 176.369C709.151 177.346 707.198 178.078 704.366 178.566C703.35 178.742 702.354 178.967 701.377 179.24C699.248 179.846 698.184 181.115 698.184 183.049C698.184 185.002 699.004 186.652 700.645 188C702.286 189.367 704.649 190.051 707.735 190.051C710.821 190.051 713.106 189.445 714.59 188.234C716.075 187.043 716.817 185.441 716.817 183.43ZM734.926 128.117C736.078 127.141 737.328 126.652 738.676 126.652C740.023 126.652 741.137 127.072 742.016 127.912C742.895 128.732 743.334 129.895 743.334 131.398C743.334 132.902 742.768 134.172 741.635 135.207C740.502 136.223 739.203 136.73 737.738 136.73C736.293 136.73 735.15 136.281 734.311 135.383C733.49 134.484 733.08 133.332 733.08 131.926C733.08 130.52 733.695 129.25 734.926 128.117ZM734.135 149.533C734.135 148.049 733.617 147.17 732.582 146.896C731.918 146.682 730.98 146.525 729.77 146.428C729.633 145.842 729.564 145.402 729.564 145.109C729.564 144.797 729.574 144.553 729.594 144.377C732.406 142.795 735.932 142.004 740.17 142.004C740.854 142.004 741.361 142.014 741.693 142.033C742.24 142.893 742.621 144.572 742.836 147.072C742.992 148.205 743.07 149.914 743.07 152.199C743.07 154.484 742.992 161.438 742.836 173.059C740.668 173.43 738.861 173.615 737.416 173.615C735.99 173.615 734.779 173.43 733.783 173.059C734.135 168.352 734.311 164.143 734.311 160.432C734.311 156.701 734.252 153.068 734.135 149.533ZM770.379 166.643L770.672 155.48C770.672 152.941 770.584 151.34 770.408 150.676C770.252 150.012 770.047 149.514 769.793 149.182C769.246 148.498 768.445 148.156 767.39 148.156C766.336 148.156 765.437 148.273 764.695 148.508C763.172 149.016 761.218 150.441 758.836 152.785C758.836 155.324 758.777 162.082 758.66 173.059C756.492 173.43 754.685 173.615 753.24 173.615C751.795 173.615 750.574 173.43 749.578 173.059C749.929 168.312 750.105 163.938 750.105 159.934C750.105 155.91 750.056 152.443 749.959 149.533C749.959 148.049 749.431 147.17 748.377 146.896C747.713 146.682 746.775 146.525 745.564 146.428C745.447 145.92 745.388 145.52 745.388 145.227C745.388 144.914 745.427 144.631 745.505 144.377C748.318 142.795 751.814 142.004 755.994 142.004C756.677 142.004 757.185 142.014 757.517 142.033C758.279 143.342 758.699 145.588 758.777 148.771C762.429 144.084 766.707 141.74 771.609 141.74C773.875 141.74 775.642 142.512 776.912 144.055C778.201 145.578 778.933 147.648 779.109 150.266C779.187 151.457 779.226 152.648 779.226 153.84C779.226 155.031 779.168 156.32 779.05 157.707C778.718 161.926 778.552 165.158 778.552 167.404C778.552 167.912 778.914 168.303 779.636 168.576C780.359 168.85 781.062 168.986 781.746 168.986C782.449 168.986 782.927 168.947 783.181 168.869C783.416 169.396 783.533 169.885 783.533 170.334C783.533 170.764 783.513 171.057 783.474 171.213C779.822 173.107 777.097 174.055 775.3 174.055C773.504 174.055 772.234 173.449 771.492 172.238C770.75 171.008 770.379 169.143 770.379 166.643ZM813.126 156.447L812.95 166.291C812.95 166.389 812.95 166.486 812.95 166.584C812.95 167.658 813.458 168.195 814.474 168.195C815.255 168.195 816.085 167.941 816.964 167.434C817.237 167.668 817.491 168 817.726 168.43C817.98 168.84 818.126 169.162 818.165 169.396C815.743 172.482 813.224 174.025 810.607 174.025C808.009 174.025 806.193 172.746 805.157 170.188C803.361 171.438 801.525 172.385 799.65 173.029C797.794 173.693 796.193 174.025 794.845 174.025C793.517 174.025 792.277 173.879 791.124 173.586C789.991 173.293 788.937 172.824 787.96 172.18C785.851 170.812 784.796 168.557 784.796 165.412C784.796 163.732 785.255 162.268 786.173 161.018C787.111 159.748 788.38 158.752 789.982 158.029C793.048 156.643 796.71 155.891 800.968 155.773L804.366 155.656C804.503 154.074 804.571 152.824 804.571 151.906C804.571 149.836 804.171 148.273 803.37 147.219C802.589 146.164 801.124 145.637 798.976 145.637C797.687 145.637 796.681 146.086 795.958 146.984C795.255 147.883 794.904 149.211 794.904 150.969C794.904 151.203 794.571 151.486 793.907 151.818C792.794 152.346 791.681 152.609 790.568 152.609C789.474 152.609 788.595 152.297 787.931 151.672C787.286 151.047 786.964 150.168 786.964 149.035C786.964 147.902 787.374 146.838 788.195 145.842C789.015 144.846 790.109 144.074 791.476 143.527C794.191 142.453 797.286 141.916 800.763 141.916C804.396 141.916 807.052 142.492 808.732 143.645C810.255 144.66 811.339 146.115 811.984 148.01C812.745 150.217 813.126 153.029 813.126 156.447ZM804.366 167.111C804.112 165.686 803.986 164.455 803.986 163.42C803.986 162.365 804.015 160.9 804.073 159.025L800.001 159.201C797.911 159.201 796.3 159.709 795.167 160.725C794.034 161.74 793.468 163.01 793.468 164.533C793.468 166.057 793.8 167.15 794.464 167.814C795.128 168.479 796.466 168.811 798.478 168.811C800.509 168.811 802.472 168.244 804.366 167.111ZM836.45 167.111C837.153 167.756 837.554 168.42 837.651 169.104C835.073 172.385 832.095 174.025 828.716 174.025C826.509 174.025 824.946 173.146 824.028 171.389C823.247 169.846 822.768 167.199 822.593 163.449C822.436 157.59 822.358 152.131 822.358 147.072C820.366 146.994 819.145 146.896 818.696 146.779C818.598 146.623 818.55 146.047 818.55 145.051C818.55 144.055 818.598 143.508 818.696 143.41L822.417 143.059C822.417 142.648 822.475 140.686 822.593 137.17C823.569 136.174 824.995 135.412 826.87 134.885C828.764 134.338 830.444 134.064 831.909 134.064C831.636 136.545 831.411 139.543 831.235 143.059C831.88 143.078 833.823 143.195 837.065 143.41C837.163 143.742 837.212 144.377 837.212 145.314C837.212 146.252 837.163 146.818 837.065 147.014C835.268 147.248 833.266 147.395 831.059 147.453C830.981 149.777 830.942 152.717 830.942 156.271C830.942 159.807 831.02 163.146 831.177 166.291C831.235 167.502 831.841 168.107 832.993 168.107C834.165 168.107 835.317 167.775 836.45 167.111ZM843.045 128.117C844.198 127.141 845.448 126.652 846.795 126.652C848.143 126.652 849.256 127.072 850.135 127.912C851.014 128.732 851.453 129.895 851.453 131.398C851.453 132.902 850.887 134.172 849.754 135.207C848.621 136.223 847.323 136.73 845.858 136.73C844.412 136.73 843.27 136.281 842.43 135.383C841.61 134.484 841.2 133.332 841.2 131.926C841.2 130.52 841.815 129.25 843.045 128.117ZM842.254 149.533C842.254 148.049 841.737 147.17 840.702 146.896C840.037 146.682 839.1 146.525 837.889 146.428C837.752 145.842 837.684 145.402 837.684 145.109C837.684 144.797 837.694 144.553 837.713 144.377C840.526 142.795 844.051 142.004 848.289 142.004C848.973 142.004 849.481 142.014 849.813 142.033C850.36 142.893 850.741 144.572 850.955 147.072C851.112 148.205 851.19 149.914 851.19 152.199C851.19 154.484 851.112 161.438 850.955 173.059C848.787 173.43 846.981 173.615 845.536 173.615C844.11 173.615 842.899 173.43 841.903 173.059C842.254 168.352 842.43 164.143 842.43 160.432C842.43 156.701 842.371 153.068 842.254 149.533ZM888.43 157.062C888.43 159.621 887.971 162.023 887.053 164.27C886.135 166.516 884.836 168.352 883.156 169.777C879.777 172.648 875.314 174.084 869.768 174.084C866.994 174.084 864.436 173.43 862.092 172.121C859.748 170.812 857.883 168.986 856.496 166.643C855.109 164.279 854.416 161.467 854.416 158.205C854.416 154.924 855.256 151.975 856.936 149.357C860.236 144.201 865.773 141.623 873.547 141.623C877.453 141.623 880.881 142.961 883.83 145.637C886.896 148.43 888.43 152.238 888.43 157.062ZM863.059 157.912C863.059 161.252 864.025 164.172 865.959 166.672C867.893 169.172 870.158 170.422 872.756 170.422C877.561 170.422 879.963 166.506 879.963 158.674C879.963 154.787 879.074 151.633 877.297 149.211C875.52 146.789 873.254 145.578 870.5 145.578C869.113 145.578 867.912 145.93 866.896 146.633C865.881 147.336 865.109 148.283 864.582 149.475C863.566 151.76 863.059 154.572 863.059 157.912ZM915.504 166.643L915.797 155.48C915.797 152.941 915.709 151.34 915.533 150.676C915.377 150.012 915.172 149.514 914.918 149.182C914.371 148.498 913.57 148.156 912.515 148.156C911.461 148.156 910.562 148.273 909.82 148.508C908.297 149.016 906.343 150.441 903.961 152.785C903.961 155.324 903.902 162.082 903.785 173.059C901.617 173.43 899.81 173.615 898.365 173.615C896.92 173.615 895.699 173.43 894.703 173.059C895.054 168.312 895.23 163.938 895.23 159.934C895.23 155.91 895.181 152.443 895.084 149.533C895.084 148.049 894.556 147.17 893.502 146.896C892.838 146.682 891.9 146.525 890.689 146.428C890.572 145.92 890.513 145.52 890.513 145.227C890.513 144.914 890.552 144.631 890.63 144.377C893.443 142.795 896.939 142.004 901.119 142.004C901.802 142.004 902.31 142.014 902.642 142.033C903.404 143.342 903.824 145.588 903.902 148.771C907.554 144.084 911.832 141.74 916.734 141.74C919 141.74 920.767 142.512 922.037 144.055C923.326 145.578 924.058 147.648 924.234 150.266C924.312 151.457 924.351 152.648 924.351 153.84C924.351 155.031 924.293 156.32 924.175 157.707C923.843 161.926 923.677 165.158 923.677 167.404C923.677 167.912 924.039 168.303 924.761 168.576C925.484 168.85 926.187 168.986 926.871 168.986C927.574 168.986 928.052 168.947 928.306 168.869C928.541 169.396 928.658 169.885 928.658 170.334C928.658 170.764 928.638 171.057 928.599 171.213C924.947 173.107 922.222 174.055 920.425 174.055C918.629 174.055 917.359 173.449 916.617 172.238C915.875 171.008 915.504 169.143 915.504 166.643Z" fill="#F66F21"/>
<path d="M25.6054 145.763L22.9081 41.5792C16.0993 71.8785 11.1697 119.208 7.87346 159.023C6.75216 172.568 16.3766 184.705 29.9208 185.825C64.0312 188.647 96.2215 186.384 137.141 183.03C105.583 182.258 77.2597 179.92 48.8595 174.25C35.3467 171.552 25.9621 159.538 25.6054 145.763Z" fill="#F66F21"/>
<path d="M182.092 162.823L179.395 58.6388C179.038 44.864 169.653 32.8496 156.141 30.1519C127.74 24.4822 99.4172 22.1443 67.859 21.3718C93.5086 19.2694 121.502 17.8044 142.915 17.543C138.705 15.3631 140.255 9 144.995 9H153.891C158.916 9 159.96 16.0958 155.148 17.543C161.438 17.7609 168.199 18.1311 175.068 18.6794C188.615 19.761 198.248 31.8343 197.127 45.3784C193.83 85.1942 188.901 132.523 182.092 162.823Z" fill="#F66F21"/>
<path d="M63.235 45.7031C63.235 52.0161 57.9359 57.1625 51.3632 57.1625C44.7905 57.1625 39.4914 52.0161 39.4914 45.7031C39.4914 39.39 44.7905 34.2437 51.3632 34.2437C57.9359 34.2437 63.235 39.39 63.235 45.7031Z" stroke="#0059A9"/>
<ellipse cx="50.126" cy="46.1154" rx="10.3098" ry="10.7222" fill="#0059A9"/>
<circle cx="104.15" cy="111.273" r="32.9914" fill="#0059A9"/>
<circle cx="90.953" cy="115.398" r="4.94872" fill="white"/>
<circle cx="123.944" cy="94.7776" r="8.24786" fill="white"/>
<circle cx="104.15" cy="106.325" r="38.7393" stroke="#0059A9" stroke-width="5"/>
</g>
<defs>
<clipPath id="clip0_60_2">
<rect width="935" height="201" fill="white"/>
</clipPath>
</defs>
</svg>