<svg width="193" height="179" viewBox="0 0 193 179" fill="none" xmlns="http://www.w3.org/2000/svg">
<path d="M19.6054 136.763L16.9081 32.5792C10.0993 62.8785 5.16974 110.208 1.87346 150.023C0.752163 163.568 10.3766 175.705 23.9208 176.825C58.0312 179.647 90.2215 177.384 131.141 174.03C99.5828 173.258 71.2597 170.92 42.8595 165.25C29.3467 162.552 19.9621 150.538 19.6054 136.763Z" fill="#F66F21"/>
<path d="M176.092 153.823L173.395 49.6388C173.038 35.864 163.653 23.8496 150.141 21.1519C121.74 15.4822 93.4172 13.1443 61.859 12.3718C87.5086 10.2694 115.502 8.80435 136.915 8.54298C132.705 6.36314 134.255 0 138.995 0H147.891C152.916 0 153.96 7.09584 149.148 8.54298C155.438 8.76086 162.199 9.13109 169.068 9.67944C182.615 10.761 192.248 22.8343 191.127 36.3784C187.83 76.1942 182.901 123.523 176.092 153.823Z" fill="#F66F21"/>
<path d="M57.235 36.7031C57.235 43.0161 51.9359 48.1625 45.3632 48.1625C38.7905 48.1625 33.4914 43.0161 33.4914 36.7031C33.4914 30.39 38.7905 25.2437 45.3632 25.2437C51.9359 25.2437 57.235 30.39 57.235 36.7031Z" stroke="#004889"/>
<ellipse cx="44.126" cy="37.1154" rx="10.3098" ry="10.7222" fill="#004889"/>
<circle cx="98.1495" cy="102.273" r="32.9914" fill="#004889"/>
<circle cx="84.953" cy="106.398" r="4.94872" fill="white"/>
<circle cx="117.944" cy="85.7776" r="8.24786" fill="white"/>
<circle cx="98.1496" cy="97.3248" r="38.7393" stroke="#004889" stroke-width="5"/>
</svg>